<svg width="108" height="64" viewBox="0 0 108 64" fill="none" xmlns="http://www.w3.org/2000/svg">
<path fill-rule="evenodd" clip-rule="evenodd" d="M23.4439 20.4406C22.9004 22.0123 23.5879 23.6769 24.9802 24.1588C26.3726 24.6406 27.9442 23.7582 28.4871 22.1859C29.0301 20.6143 28.3426 18.9513 26.9485 18.4678C25.5556 17.987 23.9868 18.8695 23.4439 20.4406V20.4406Z" fill="#85DA78"/>
<path fill-rule="evenodd" clip-rule="evenodd" d="M22.6748 31.5417C23.736 31.9373 27.8105 32.1899 28.5792 30.1734C29.9015 26.7198 34.5519 21.95 34.8674 21.1286C35.143 20.4154 34.1648 19.6354 33.475 20.3229C32.2015 21.5982 30.1166 23.7474 27.044 24.886C25.3401 25.5168 24.0963 24.6871 23.6385 24.3184C21.0533 22.2374 22.156 16.8715 22.0568 15.9442C22.0053 15.4473 21.7683 15.2388 21.5201 15.1615H20.9161C20.9145 15.1617 20.913 15.162 20.9116 15.1626L20.8987 15.1632C20.8093 15.4228 20.7275 15.6849 20.6533 15.9493C20.0302 18.4174 18.3421 26.5287 22.1493 33.3262C22.9976 34.8413 23.2962 35.1505 21.7436 36.502C20.1883 37.854 17.3162 39.2115 13.0714 38.4238C12.2943 38.2803 12.5834 37.2018 12.71 36.3619C13.3129 32.3127 13.1067 30.8346 12.4842 29.6832C11.8253 28.4696 8.11057 27.6269 5.34833 27.4067C4.96676 28.8123 4.77086 30.2618 4.76562 31.7182V31.7893C4.76562 37.8495 8.00524 43.1521 12.8456 46.0606C13.1179 44.299 13.4014 41.9928 14.0172 40.2963C14.1141 40.0301 14.3539 39.3527 14.9366 39.2351C15.27 39.1667 15.7462 39.174 16.3127 39.2558C16.8086 39.327 16.98 39.6777 16.822 40.3075C16.2824 42.4573 15.3658 45.0879 14.643 46.9963C16.238 47.7049 17.935 48.1568 19.6711 48.3354C19.5899 48.021 19.5243 47.6344 19.4756 47.1683C19.2963 45.3877 18.5746 42.3038 18.6699 40.0038C18.6833 39.7209 18.7444 38.9622 19.224 38.7146C19.5069 38.57 19.9793 38.3173 20.5446 38.161C20.8785 38.0669 21.3072 38.361 21.3464 39.0093C21.5251 41.9161 21.3341 45.967 21.1822 47.8574C21.1671 48.0535 21.1419 48.234 21.106 48.3998L21.4097 48.4099C21.8949 48.4833 22.4221 48.2821 22.5701 47.7028C23.2895 44.8968 23.3472 38.0097 24.8617 37.3273H24.8577C24.967 37.2769 25.0785 37.2617 25.1928 37.2757C25.1928 37.2769 25.1928 37.2757 25.1945 37.2769H25.1928C26.8529 37.4959 29.0835 44.2021 30.6293 46.6478C31.2708 47.6602 32.885 46.7604 32.5253 45.8101C32.1656 44.8587 29.8057 38.6938 29.2118 36.0246C28.6195 33.3565 28.6167 31.6246 27.5186 31.9462C26.1514 32.3485 23.5562 32.7077 22.4748 31.7305C22.4249 31.6846 22.2742 31.3915 22.6748 31.5417V31.5417Z" fill="#85DA78"/>
<path d="M38.0137 40.8224H103.235V41.1484H38.0137V40.8224Z" fill="#2CC214"/>
<path fill-rule="evenodd" clip-rule="evenodd" d="M95.7631 35.1376H95.7446C94.6515 34.342 93.1129 33.9767 93.1292 33.0987C93.1382 32.4056 93.7354 32.1126 94.2784 32.1126C95.0914 32.1126 95.7295 32.4689 96.3106 33.0505V32.0353C95.7808 31.6787 95.1717 31.4573 94.5367 31.3904L94.414 31.3892C92.3991 31.3892 91.5861 32.4191 91.5861 33.5587C91.5861 34.8446 92.8883 35.4586 93.9332 36.0273C94.6196 36.4095 95.1972 36.7725 95.2331 37.3037C95.2779 37.9379 95.0208 38.7212 93.8441 38.7016C92.8933 38.6865 92.658 38.1436 92.2215 37.925C92.0159 37.8231 91.7828 37.8617 91.692 38.0181C91.4797 38.3806 91.8069 38.6686 91.9319 38.7733C92.2591 39.0501 93.011 39.4261 93.7606 39.4261C95.469 39.4261 96.8249 38.6008 96.8249 36.9866C96.8249 36.1377 96.3615 35.5729 95.7631 35.1376V35.1376ZM60.0511 38.3755V27.8017H58.4218V38.3867C58.4218 38.6028 58.5076 38.81 58.6604 38.9628C58.8132 39.1156 59.0204 39.2014 59.2365 39.2014C59.4525 39.2014 59.6597 39.1156 59.8125 38.9628C59.9653 38.81 60.0511 38.6028 60.0511 38.3867V38.3755ZM76.7272 34.7857C76.7272 34.1459 77.0499 32.14 78.2747 32.14C79.3863 32.14 79.6614 33.752 79.6614 34.7857H76.7272ZM81.144 38.8299C81.1473 38.6019 80.9198 38.5212 80.7786 38.5604C80.4156 38.6658 80.0395 38.7194 79.6614 38.7195C77.3721 38.7195 76.7277 37.1815 76.7277 35.4581H81.2891C81.2891 34.0809 80.8722 31.5825 78.3397 31.5825C76.1798 31.5825 74.9712 32.781 74.9712 35.2575C74.9712 37.98 76.4364 39.4569 78.9196 39.4569C79.8256 39.4569 80.5624 39.2378 80.9551 39.0989C81.0112 39.0801 81.0598 39.0438 81.0938 38.9954C81.1278 38.947 81.1453 38.889 81.144 38.8299V38.8299ZM90.5871 28.539C90.0661 28.539 89.6408 28.8887 89.6408 29.3901C89.6408 29.933 90.0117 30.1572 90.284 30.1852C90.4611 30.1975 90.572 30.3107 90.572 30.4771C90.572 31.0026 90.3266 31.2609 90.0554 31.5915C89.9294 31.7506 89.982 31.9221 90.1585 31.9423C90.3345 31.9647 90.4913 31.8358 90.6146 31.6924C90.8214 31.4537 91.6007 30.7841 91.6007 29.6395C91.6002 29.0125 91.1889 28.539 90.5871 28.539V28.539ZM53.1287 38.385V33.673C53.1287 32.4252 52.82 31.4901 51.1621 31.4901C49.6465 31.4901 48.9024 32.7709 48.5343 33.4438H48.5007V27.8017H46.8741V38.3867C46.8741 38.6026 46.9599 38.8097 47.1126 38.9624C47.2653 39.1151 47.4723 39.2008 47.6883 39.2008C47.9042 39.2008 48.1112 39.1151 48.2639 38.9624C48.4166 38.8097 48.5024 38.6026 48.5024 38.3867L48.5012 38.3755V35.2317C48.5012 34.1974 49.5327 32.4913 50.4527 32.4913C51.2584 32.4913 51.5005 33.0158 51.5005 35.002V38.3867C51.5005 38.8355 51.8624 39.2014 52.314 39.2014C52.7634 39.2014 53.1298 38.8355 53.1298 38.3867C53.1287 38.3867 53.1287 38.3856 53.1287 38.385V38.385ZM56.584 31.4643H54.9547V38.3626C54.9547 38.5787 55.0405 38.7859 55.1933 38.9387C55.3461 39.0915 55.5533 39.1773 55.7694 39.1773C55.9854 39.1773 56.1926 39.0915 56.3454 38.9387C56.4982 38.7859 56.584 38.5787 56.584 38.3626V31.4643ZM55.7688 30.1303C56.3179 30.1303 56.7644 29.6854 56.7644 29.1374C56.7644 28.8735 56.6596 28.6204 56.473 28.4338C56.2864 28.2472 56.0333 28.1424 55.7694 28.1424C55.5055 28.1424 55.2524 28.2472 55.0657 28.4338C54.8791 28.6204 54.7743 28.8735 54.7743 29.1374C54.7743 29.6854 55.2208 30.1303 55.7688 30.1303ZM68.4477 38.3778V27.8017H66.8195V32.6718H66.7864C66.4811 32.1955 65.9645 31.4901 64.7716 31.4901C62.5304 31.4901 61.7242 33.2141 61.7242 35.4278C61.7242 37.3474 62.2419 39.3644 64.4489 39.3644C65.8844 39.3644 66.4318 38.5587 66.7864 38.0186H66.8195V38.3867C66.8195 38.6028 66.9053 38.81 67.0581 38.9628C67.2109 39.1156 67.4181 39.2014 67.6342 39.2014C67.8502 39.2014 68.0574 39.1156 68.2102 38.9628C68.363 38.81 68.4488 38.6028 68.4488 38.3867L68.4477 38.3778V38.3778ZM65.1924 38.4293C63.8538 38.4293 63.4818 37.1177 63.4818 35.4284C63.4818 33.8865 63.8538 32.2784 65.1924 32.2784C66.4474 32.2784 66.8195 33.427 66.8195 35.4284C66.8195 37.0022 66.5449 38.4293 65.1924 38.4293ZM74.1229 31.4901C72.8001 31.4901 72.2045 32.6555 71.931 33.3934H71.8963V31.4845H70.2681V38.3867C70.2681 38.6026 70.3539 38.8097 70.5065 38.9624C70.6592 39.1151 70.8663 39.2008 71.0822 39.2008C71.2981 39.2008 71.5052 39.1151 71.6579 38.9624C71.8105 38.8097 71.8963 38.6026 71.8963 38.3867V35.5746C71.8963 33.8853 72.6219 32.8858 73.1222 32.8858C73.6562 32.8858 73.5436 33.2623 74.1235 33.2623C74.5908 33.2623 74.9914 32.9177 74.9914 32.3434C74.9908 31.8027 74.4927 31.4901 74.1229 31.4901V31.4901ZM88.8951 38.4685V33.7682C88.8951 32.5205 88.5875 31.5859 86.9452 31.5859C85.4145 31.5859 84.671 32.8505 84.3023 33.5217H84.2676V31.5764H82.6405V38.4803C82.6483 38.6908 82.7374 38.8901 82.8892 39.0363C83.0409 39.1825 83.2434 39.2642 83.4541 39.2642C83.6647 39.2642 83.8672 39.1825 84.0189 39.0363C84.1706 38.8901 84.2598 38.6908 84.2676 38.4803V35.309C84.2676 34.2927 85.2997 32.586 86.2353 32.586C87.0265 32.586 87.2685 33.1116 87.2685 35.0961V38.4803C87.2685 38.9285 87.6305 39.2933 88.0826 39.2933C88.5292 39.2933 88.8956 38.9285 88.8956 38.4803L88.8951 38.4685V38.4685ZM54.0622 25.2905V21.2485C54.0622 20.1756 53.7983 19.3693 52.3835 19.3693C51.0657 19.3693 50.4286 20.4568 50.1104 21.0356H50.0813V19.3637H48.6805V25.3011C48.6805 25.6872 48.9954 26.0009 49.3831 26.0009C49.7681 26.0009 50.0813 25.6877 50.0813 25.3011V22.5736C50.0813 21.699 50.9705 20.231 51.7756 20.231C52.4541 20.231 52.6609 20.6826 52.6609 22.3887V25.3011C52.6609 25.4869 52.7347 25.6651 52.8661 25.7965C52.9975 25.9279 53.1757 26.0018 53.3615 26.0018C53.5473 26.0018 53.7255 25.9279 53.8569 25.7965C53.9883 25.6651 54.0622 25.4869 54.0622 25.3011V25.2905V25.2905ZM90.6353 19.3648H89.2335V25.2994C89.2335 25.4853 89.3073 25.6636 89.4388 25.7951C89.5702 25.9265 89.7485 26.0004 89.9344 26.0004C90.1203 26.0004 90.2986 25.9265 90.43 25.7951C90.5615 25.6636 90.6353 25.4853 90.6353 25.2994V19.3648ZM89.9361 18.2157C90.4079 18.2157 90.7877 17.8352 90.7877 17.3635C90.7877 16.8911 90.4079 16.5079 89.9361 16.5079C89.7096 16.5079 89.4924 16.5979 89.3323 16.758C89.1722 16.9181 89.0822 17.1353 89.0822 17.3618C89.0822 17.5882 89.1722 17.8054 89.3323 17.9656C89.4924 18.1257 89.7096 18.2157 89.9361 18.2157V18.2157ZM62.7669 19.3648H61.3684V25.2994C61.3684 25.4849 61.4421 25.6627 61.5732 25.7939C61.7043 25.925 61.8822 25.9987 62.0676 25.9987C62.2531 25.9987 62.4309 25.925 62.5621 25.7939C62.6932 25.6627 62.7669 25.4849 62.7669 25.2994V19.3648ZM62.0699 18.2157C62.5394 18.2157 62.9243 17.8352 62.9243 17.3635C62.9239 17.1369 62.8337 16.9197 62.6736 16.7594C62.5135 16.599 62.2965 16.5086 62.0699 16.5079C61.8427 16.5077 61.6248 16.5978 61.4639 16.7582C61.3031 16.9186 61.2125 17.1363 61.2121 17.3635C61.2121 17.8358 61.5975 18.2157 62.0699 18.2157ZM46.8685 19.3648H45.4672V25.2994C45.4724 25.4818 45.5485 25.655 45.6793 25.7822C45.8102 25.9094 45.9854 25.9805 46.1679 25.9805C46.3504 25.9805 46.5256 25.9094 46.6565 25.7822C46.7873 25.655 46.8634 25.4818 46.8685 25.2994V19.3648ZM46.1676 18.2157C46.3941 18.2157 46.6113 18.1257 46.7714 17.9656C46.9315 17.8054 47.0215 17.5882 47.0215 17.3618C47.0215 17.1353 46.9315 16.9181 46.7714 16.758C46.6113 16.5979 46.3941 16.5079 46.1676 16.5079C45.9412 16.5079 45.724 16.5979 45.5638 16.758C45.4037 16.9181 45.3137 17.1353 45.3137 17.3618C45.3137 17.5882 45.4037 17.8054 45.5638 17.9656C45.724 18.1257 45.9412 18.2157 46.1676 18.2157V18.2157ZM70.0081 25.2905V21.2485C70.0081 20.1756 69.7442 19.3693 68.3317 19.3693C67.0139 19.3693 66.3763 20.4568 66.0564 21.0356H66.0289V19.3637H64.6282V25.3011C64.6282 25.4869 64.702 25.665 64.8333 25.7963C64.9647 25.9277 65.1428 26.0015 65.3285 26.0015C65.5143 26.0015 65.6924 25.9277 65.8238 25.7963C65.9551 25.665 66.0289 25.4869 66.0289 25.3011V22.5736C66.0289 21.699 66.9153 20.231 67.721 20.231C68.4018 20.231 68.6085 20.6826 68.6085 22.3887V25.3011C68.6157 25.4819 68.6926 25.6528 68.8231 25.7781C68.9535 25.9035 69.1274 25.9735 69.3083 25.9735C69.4892 25.9735 69.6631 25.9035 69.7935 25.7781C69.924 25.6528 70.0009 25.4819 70.0081 25.3011V25.2905V25.2905ZM77.186 25.2905V21.2485C77.186 20.1756 76.9255 19.3693 75.5119 19.3693C74.193 19.3693 73.5553 20.4568 73.2348 21.0356H73.2085V19.3637H71.8078V25.3011C71.8078 25.6872 72.1199 26.0009 72.5081 26.0009C72.8975 26.0009 73.2085 25.6877 73.2085 25.3011V22.5736C73.2085 21.699 74.096 20.231 74.9023 20.231C75.5786 20.231 75.7876 20.6826 75.7876 22.3887V25.3011C75.7876 25.4866 75.8612 25.6644 75.9924 25.7956C76.1235 25.9267 76.3013 26.0004 76.4868 26.0004C76.6722 26.0004 76.8501 25.9267 76.9812 25.7956C77.1124 25.6644 77.186 25.4866 77.186 25.3011V25.2905V25.2905ZM60.1934 25.5611C60.2119 25.7314 60.0545 25.8289 59.9833 25.8524C59.5137 26.0149 59.0207 26.0998 58.5238 26.104C56.5398 26.104 55.3861 24.8635 55.3861 22.4498C55.3861 20.5123 56.2395 19.3122 58.0386 19.3122C59.7206 19.3122 60.2865 20.2389 60.2865 21.5757H58.8947C58.8947 20.7992 58.8168 19.8848 57.9887 19.8848C57.225 19.8848 56.8311 20.8132 56.8311 21.9853C56.8311 23.5681 57.4732 25.3818 59.0768 25.3818C59.3267 25.38 59.575 25.3423 59.8141 25.2697C59.9402 25.2328 60.1638 25.2821 60.1934 25.5611V25.5611ZM88.1773 25.6642C88.184 25.9034 87.9812 26.0211 87.8697 26.0351C87.6663 26.0592 87.4616 26.0712 87.2568 26.071C86.009 26.071 85.2845 25.6888 85.2845 24.4803V19.6752H84.29V18.9928H85.2845V17.5209L86.6141 16.718V18.9928H88.3224V19.6752H86.6141V23.9564C86.6141 24.8753 86.7049 25.3224 87.5604 25.3224C87.6294 25.3224 87.7016 25.3202 87.7717 25.3129C87.9157 25.3 88.1717 25.3969 88.1773 25.6642V25.6642ZM83.3756 21.5079C83.3711 20.3773 83.1128 19.3116 81.0963 19.3116C79.1252 19.3116 78.7588 20.2344 78.6921 21.1085H80.085C80.1377 20.4171 80.2811 19.8282 81.0963 19.8282C81.976 19.8282 81.976 20.8855 81.976 21.5247L81.9782 21.6648C81.1423 21.7124 78.4882 21.829 78.4882 24.1525C78.4882 25.1997 79.2115 26.0385 80.1976 26.0385C81.1966 26.0385 81.7485 25.2625 81.9586 24.8176H81.9861L81.9894 24.8058V25.3992C81.9894 25.7617 82.3015 26.0558 82.6887 26.0558C83.0747 26.0558 83.3902 25.7622 83.3902 25.3992V21.5074H83.3756V21.5079V21.5079ZM81.9855 23.218C81.9855 24.5016 81.154 25.0406 80.6952 25.0406C80.262 25.0406 79.9337 24.5968 79.9337 23.915C79.9337 22.5204 81.4319 22.3781 81.9855 22.3304V23.218ZM45.0672 37.5676C41.0533 39.2148 39.5203 36.4532 39.1897 35.1667H39.1808C39.0171 34.4664 38.9544 33.6954 38.9544 32.9312C38.9544 31.4117 39.2973 28.7357 41.4583 28.7357C43.0204 28.7357 43.3633 30.035 43.3633 30.9214H45.5586C45.5586 29.1318 44.2559 27.786 41.613 27.786C37.9924 27.786 36.9452 30.5729 36.9452 33.2158C36.9452 35.9864 38.0994 38.5156 40.8936 39.0955C43.0317 39.5398 44.8263 38.6725 45.4773 38.1127C45.5558 38.0433 45.7054 37.8701 45.586 37.6634C45.4841 37.4863 45.2504 37.4936 45.0672 37.5676V37.5676ZM43.8939 24.9605C40.4067 26.3914 39.0765 23.9923 38.7891 22.8745H38.7796C38.6373 22.266 38.5829 21.5965 38.5829 20.932C38.5829 19.6125 38.8816 17.2884 40.7602 17.2884C42.1156 17.2884 42.4148 18.4163 42.4148 19.1861H44.3226C44.3226 17.6324 43.1897 16.4631 40.8936 16.4631C37.7486 16.4631 36.8398 18.8835 36.8398 21.1807C36.8398 23.5866 37.8428 25.7841 40.2711 26.2883C42.1268 26.6727 43.6855 25.9197 44.2514 25.4345C44.3214 25.3745 44.4492 25.2238 44.3455 25.0445C44.2559 24.8893 44.0531 24.8955 43.8939 24.9605Z" fill="#2CC214"/>
<path fill-rule="evenodd" clip-rule="evenodd" d="M5.80273 25.9942C8.82552 26.0519 11.9923 26.2435 13.7533 26.4939C14.3472 26.578 15.2521 27.0027 15.9508 26.625C16.8259 26.1555 16.7509 25.5498 16.859 24.9559C17.44 21.7578 18.4065 17.9433 19.2105 15.8433C19.252 15.7352 19.3417 15.4926 19.4257 15.2719C13.1443 16.0148 7.93633 20.2568 5.80273 25.9942V25.9942ZM16.5099 22.796C16.4024 21.393 15.6236 20.6647 14.7484 20.3027C14.568 20.2288 14.3859 20.3352 14.5988 20.4742C14.8386 20.631 16.3116 21.7774 15.9855 23.6314C15.4527 26.1241 13.2765 25.5896 12.64 25.3392C12.612 25.3274 12.5862 25.31 12.5582 25.2983C11.9542 24.9459 11.5799 24.4842 11.5099 24.3497C11.4634 24.2651 11.2947 24.3351 11.3737 24.5122C11.5385 24.8927 11.7844 25.2327 12.0943 25.5084C10.7865 25.7846 10.1366 25.1033 10.1366 25.1033C10.326 24.8528 10.4431 24.2881 10.4201 23.9581C10.2218 21.2619 10.512 20.482 11.6062 19.6393C12.6019 18.8734 14.1825 19.097 15.0016 19.5962C15.9289 20.161 17.0585 19.9352 17.0585 19.9352C17.2434 21.4479 16.6113 22.6212 16.5099 22.796V22.796Z" fill="#85DA78"/>
<path fill-rule="evenodd" clip-rule="evenodd" d="M40.7879 42.7341H40.7493V44.7293H38.6818V42.7341H38.0195V47.4131H38.6818V45.2386H40.7493V47.4131H41.4127V42.7341H40.7879ZM43.4656 44.0889C42.5153 44.0889 41.9679 44.7097 41.9679 45.7933C41.9679 46.8836 42.5002 47.4859 43.4656 47.4859C43.98 47.4859 44.3722 47.3201 44.631 46.9923C44.8579 46.706 44.9784 46.2914 44.9784 45.7933C44.9784 44.7097 44.4276 44.0889 43.4656 44.0889ZM43.4656 47.0304C42.9277 47.0304 42.6313 46.5889 42.6313 45.7865C42.6313 44.9859 42.9277 44.5438 43.4656 44.5438C44.0147 44.5438 44.3161 44.9859 44.3161 45.7865C44.3161 46.5889 44.0153 47.0304 43.4656 47.0304ZM46.8072 45.5669L46.7629 45.5479C46.7657 45.5484 46.4637 45.3876 46.4621 45.3865L46.3169 45.3221C46.0704 45.2156 45.8362 45.1142 45.8362 44.9215C45.8362 44.7058 46.1298 44.5444 46.5214 44.5444C46.8677 44.5444 47.2112 44.6464 47.3451 44.6895L47.3955 44.7052V44.2032L47.3636 44.1965L47.2991 44.1836C47.0418 44.1231 46.7785 44.0915 46.5142 44.0894C45.7225 44.0894 45.249 44.4178 45.249 44.9674C45.249 45.4582 45.6541 45.6532 45.9774 45.8101L46.0827 45.8611C46.0833 45.8622 46.4072 46.0163 46.4072 46.0163C46.4396 46.032 46.4789 46.0499 46.5203 46.0684C46.736 46.1675 47.0336 46.3037 47.0336 46.5553C47.0336 46.9693 46.5102 47.0309 46.1982 47.0309C45.9494 47.0309 45.648 46.9777 45.3039 46.8718L45.235 46.8511V47.3436L45.2613 47.352C45.4384 47.4019 45.8003 47.4865 46.2497 47.4865C47.1333 47.4865 47.6207 47.1324 47.6207 46.4891C47.6196 45.9378 47.1692 45.7328 46.8072 45.5669V45.5669ZM49.6815 44.0889C49.1806 44.0889 48.8977 44.3685 48.771 44.5993V44.1623H48.1827V48.8401H48.771V46.9945C48.8909 47.2175 49.1453 47.4859 49.6882 47.4859C50.6166 47.4859 50.945 46.5945 50.945 45.7619C50.9444 44.6514 50.5197 44.0889 49.6815 44.0889ZM49.5751 44.5444C50.1589 44.5444 50.2827 45.159 50.2827 45.6751C50.2827 46.2936 50.1566 47.0309 49.5588 47.0309C49.0148 47.0309 48.771 46.3995 48.771 45.7748C48.7705 45.2806 48.9845 44.5444 49.5751 44.5444ZM53.761 44.1623V43.1084L53.7061 43.1398L53.1946 43.4266L53.1733 43.4373V44.1628H52.6505V44.6189H53.1733V46.6281C53.1733 47.2287 53.4831 47.4859 54.2059 47.4859C54.3471 47.4859 54.4984 47.4747 54.6625 47.4523L54.6956 47.4467V46.957L54.6463 46.9716L54.6093 46.9833C54.5163 47.0102 54.4507 47.0298 54.3107 47.0298C53.9409 47.0298 53.7616 46.8679 53.7616 46.5345V44.6178H54.7264V44.1617H53.761V44.1623ZM56.4275 44.0889C55.4632 44.0889 55.1119 44.5662 55.1046 45.0133V45.0514H55.7462L55.7518 45.0184C55.7887 44.7724 55.8997 44.5433 56.4432 44.5433C56.79 44.5433 56.9967 44.6822 57.0623 44.9545C57.0797 45.0498 57.0808 45.3579 57.0808 45.5199C56.9763 45.5327 56.8711 45.538 56.7659 45.5355C56.0655 45.5355 55.0228 45.8084 55.0228 46.5597C55.0228 47.1385 55.396 47.4842 56.0229 47.4842C56.5933 47.4842 56.9474 47.2315 57.0987 47.0489V47.4114H57.6708V45.1461C57.6708 44.6923 57.5413 44.0889 56.4275 44.0889V44.0889ZM56.1518 47.0304C55.9243 47.0304 55.6834 46.8987 55.6834 46.6085C55.6834 46.0863 56.5042 45.972 56.8191 45.972H57.0808C57.0785 46.2908 57.0416 46.3715 56.9626 46.5334L56.9508 46.5592C56.8169 46.8326 56.479 47.0304 56.1518 47.0304ZM58.4894 42.7341H58.4518V47.4131H59.0407V42.7341H58.4894V42.7341ZM66.1856 42.7341H66.1604L66.1503 42.7604L64.7697 46.5984L63.3863 42.7604L63.3774 42.7341H62.4333V47.4131H63.0361V43.4955L64.5058 47.3878L64.5136 47.4131H65.0179L65.0258 47.3878L66.4965 43.4933V47.4131H67.0972V42.7341H66.1856ZM69.0985 44.0889C68.1729 44.0889 67.6619 44.6548 67.6619 45.6807C67.6619 46.8449 68.2968 47.4859 69.4459 47.4859C69.7664 47.4859 70.0477 47.454 70.2763 47.3923L70.3037 47.3845V46.9351L70.2589 46.9441L70.1659 46.9654C70.0326 46.9968 69.879 47.0304 69.5597 47.0304C68.5848 47.0304 68.3265 46.1782 68.3265 45.6745V45.5243H70.3872V45.3333C70.3867 44.5545 69.9054 44.0889 69.0985 44.0889V44.0889ZM69.7216 45.0694H68.3735C68.4251 44.8822 68.5825 44.5438 69.0795 44.5438C69.5714 44.5444 69.7059 44.8957 69.7216 45.0694ZM73.0699 42.7341H73.0318V44.5842C72.8559 44.2603 72.5416 44.0889 72.1135 44.0889C71.1868 44.0889 70.8562 44.9797 70.8562 45.814C70.8562 46.9228 71.282 47.4853 72.1213 47.4853C72.6206 47.4853 72.9046 47.2069 73.0318 46.9755V47.4125H73.6196V42.7335H73.0699V42.7341V42.7341ZM72.2272 47.0304C71.7566 47.0304 71.519 46.6505 71.519 45.9008C71.519 45.2823 71.6451 44.5438 72.2424 44.5438C72.7875 44.5438 73.0313 45.1758 73.0313 45.8011C73.0318 46.2762 72.8127 47.0304 72.2272 47.0304ZM74.4981 44.1623H74.46V47.4131H75.0472V44.1623H74.4981V44.1623ZM77.2699 44.0889C76.2883 44.0889 75.7717 44.6508 75.7717 45.7137C75.7717 46.8399 76.4569 47.4853 77.6537 47.4853C77.9708 47.4853 78.1669 47.4618 78.4078 47.3979L78.4364 47.3901V46.9508L78.3871 46.9648C78.2112 47.0192 77.9798 47.0298 77.8179 47.0298C76.6143 47.0298 76.4345 46.1423 76.4345 45.614C76.4345 45.1198 76.6468 44.5438 77.2475 44.5438C77.7708 44.5438 77.8492 44.9343 77.8492 45.1669V45.2044H78.5322V45.1669C78.5328 44.843 78.4101 44.0889 77.2699 44.0889V44.0889ZM80.2249 44.0889C79.2617 44.0889 78.9093 44.5662 78.9009 45.0133L78.8987 45.0514H79.5419L79.5486 45.0184C79.5834 44.7724 79.6932 44.5433 80.24 44.5433C80.5868 44.5433 80.7936 44.6822 80.8586 44.9545C80.8782 45.0498 80.8793 45.3579 80.8804 45.5199C80.7756 45.5326 80.67 45.5378 80.5644 45.5355C79.8629 45.5355 78.818 45.8084 78.818 46.5597C78.818 47.1385 79.1923 47.4842 79.8192 47.4842C80.3885 47.4842 80.7448 47.2315 80.895 47.0494V47.4114H81.4671V45.1461C81.4665 44.6923 81.3388 44.0889 80.2249 44.0889V44.0889ZM79.9475 47.0304C79.7223 47.0304 79.4803 46.8987 79.4803 46.6085C79.4803 46.0863 80.3 45.972 80.616 45.972H80.8776C80.8754 46.2902 80.8395 46.3698 80.7605 46.5312L80.7476 46.5592C80.6143 46.8326 80.2759 47.0304 79.9475 47.0304ZM82.326 42.7341H82.2873V47.4131H82.8751V42.7341H82.326V42.7341ZM87.6746 42.6607C85.9377 42.6607 85.6794 44.1186 85.6794 44.987C85.6794 45.4521 85.7505 46.1199 86.0917 46.6572C86.4408 47.2069 86.986 47.4853 87.7127 47.4853C88.4002 47.4853 88.7851 47.3335 89.0159 47.2433C89.0467 47.231 89.077 47.2198 89.1022 47.2091L89.1263 47.2002V46.5625L89.068 46.6023C88.9302 46.6942 88.5111 46.9755 87.8533 46.9755C86.5826 46.9755 86.3937 45.7456 86.3937 45.0122C86.3937 43.7897 86.8252 43.1694 87.674 43.1694C88.2265 43.1694 88.5845 43.5056 88.5845 44.0244V44.0625H89.3207V44.0244C89.3218 43.1969 88.6753 42.6607 87.6746 42.6607V42.6607ZM90.8856 44.0889C89.9611 44.0889 89.4502 44.6548 89.4502 45.6807C89.4502 46.8449 90.0827 47.4859 91.2341 47.4859C91.5535 47.4859 91.8348 47.454 92.0645 47.3923L92.0919 47.3845V46.9351L92.0471 46.9441C92.0166 46.9511 91.9859 46.9578 91.9552 46.9643C91.8196 46.9968 91.6672 47.0304 91.3467 47.0304C90.3741 47.0304 90.1135 46.1782 90.1135 45.6745V45.5243H92.1765V45.3333C92.176 44.5545 91.6919 44.0889 90.8856 44.0889V44.0889ZM91.5081 45.0694H90.1612C90.206 44.903 90.3634 44.5438 90.8638 44.5438C91.3596 44.5444 91.493 44.8957 91.5081 45.0694ZM94.4682 44.0889C93.7667 44.0889 93.4921 44.5057 93.3705 44.778V44.1617H92.7845V47.4125H93.3711V46.0684C93.3711 45.4756 93.719 44.6184 94.3494 44.6184C94.8133 44.6184 94.8385 44.9965 94.8385 45.614V47.4125H95.4251V45.1069C95.4246 44.5999 95.1293 44.0889 94.4682 44.0889V44.0889ZM96.9721 44.1623L96.9654 43.1728V43.1078L96.9071 43.1398L96.404 43.4266L96.3844 43.4373V44.1628H95.7977V44.6189H96.3844V46.6281C96.3844 47.2287 96.6931 47.4859 97.4164 47.4859C97.5565 47.4859 97.7055 47.4747 97.8736 47.4523L97.9078 47.4478V46.957L97.8574 46.971L97.8182 46.9833C97.7274 47.0102 97.6618 47.0298 97.5218 47.0298C97.152 47.0298 96.9727 46.8679 96.9727 46.5345V44.6178H97.9358V44.1617H96.9721V44.1623V44.1623ZM99.4968 44.1886C98.569 44.1886 98.058 44.7545 98.058 45.7809C98.058 46.9447 98.6905 47.5856 99.8408 47.5856C100.162 47.5856 100.441 47.5537 100.67 47.4909L100.699 47.4825V47.0343L100.653 47.0438C100.622 47.0494 100.594 47.0567 100.565 47.0629C100.429 47.0948 100.277 47.1301 99.9546 47.1301C98.9808 47.1301 98.7202 46.2768 98.7202 45.7737V45.6235H100.783V45.4324C100.783 44.6536 100.303 44.1886 99.4968 44.1886V44.1886ZM100.115 45.1685H98.7684C98.8144 45.0005 98.9718 44.6441 99.4721 44.6441C99.9674 44.6441 100.1 44.9937 100.115 45.1685ZM103.181 44.1886C102.442 44.1886 102.137 44.5646 102.006 44.7887V44.2614H101.419V47.5122H102.006V46.1608C102.006 45.2644 102.436 44.7506 103.181 44.7506H103.219V44.1886H103.181V44.1886ZM51.6106 44.1623H51.5725V47.4131H52.1603V44.1623H51.6106V44.1623ZM74.7586 43.6171C74.8552 43.6171 74.9479 43.5787 75.0162 43.5104C75.0845 43.4421 75.1228 43.3495 75.1228 43.2529C75.1228 43.1563 75.0845 43.0637 75.0162 42.9954C74.9479 42.9271 74.8552 42.8887 74.7586 42.8887C74.6621 42.8887 74.5694 42.9271 74.5011 42.9954C74.4328 43.0637 74.3945 43.1563 74.3945 43.2529C74.3945 43.3495 74.4328 43.4421 74.5011 43.5104C74.5694 43.5787 74.6621 43.6171 74.7586 43.6171V43.6171ZM51.8812 43.6171C52.0824 43.6171 52.2449 43.4546 52.2449 43.254C52.2449 43.1572 52.2064 43.0642 52.1379 42.9957C52.0694 42.9272 51.9764 42.8887 51.8796 42.8887C51.7827 42.8887 51.6897 42.9272 51.6212 42.9957C51.5527 43.0642 51.5142 43.1572 51.5142 43.254C51.5142 43.4546 51.6784 43.6171 51.8812 43.6171Z" fill="#2CC214"/>
</svg>
