<svg width="108" height="64" viewBox="0 0 108 64" fill="none" xmlns="http://www.w3.org/2000/svg">
<path d="M37 26.5C37 37.272 30.0645 46 21.4839 46C12.9355 46 6 37.272 6 26.5C6 15.728 12.9355 7 21.5161 7C30.0645 7 37 15.728 37 26.5ZM21.5161 44.6697C29.3226 44.6697 35.6774 36.5258 35.6774 26.5324C35.6774 16.5391 29.3226 8.39517 21.5161 8.39517C13.7097 8.39517 7.35484 16.5391 7.35484 26.5324C7.35484 36.5258 13.7097 44.6697 21.5161 44.6697V44.6697ZM21.5161 9.27121C28.871 9.27121 34.8387 17.0258 34.8387 26.5324C34.8387 36.0715 28.871 43.7937 21.5161 43.7937C14.1613 43.7937 8.19355 36.0391 8.19355 26.5324C8.19355 16.9933 14.1613 9.27121 21.5161 9.27121ZM22.4194 11.3802L22.2258 11.2829C22.1935 11.8344 22.0968 12.386 22.0968 12.9376C22.0645 13.0025 21.9677 13.0674 22 13.1647C22.7742 13.8461 23.6129 14.4626 24.4194 15.0466C25.4516 15.7928 26.5484 16.5391 27.6452 17.1231C28.129 16.8311 28.7419 16.6689 29.2903 16.4093V16.312C28.129 15.6306 27.0968 14.9817 25.9355 14.3328L25.871 14.3652C25.871 14.8195 25.9032 15.3062 25.9032 15.728C25.3871 15.4684 24.8387 15.0141 24.3548 14.6897V14.6248C24.3548 14.5275 24.4839 14.495 24.5806 14.495C24.9355 14.3977 25.3226 14.3003 25.6452 14.1705V14.1381L22.4194 11.3802V11.3802ZM22.8065 11.2829H22.7097C23.2258 11.7696 23.7742 12.2238 24.2903 12.678C25.7097 14.0408 27.3226 15.0141 29.0323 15.8253C28.0968 14.8195 27.3548 14.0083 26.3548 13.1323L22.8065 11.2829V11.2829ZM21.129 13.7488C20.9032 13.5865 20.6129 13.4892 20.2903 13.5216C19.6129 13.5216 19.5806 14.3977 19.2258 14.7546C19.129 15.0141 18.8065 15.1764 18.8065 15.5657C18.9677 16.0524 19.6452 16.0849 20.0968 16.2146C20.2903 16.1822 20.5484 16.2795 20.6452 16.0849C20.6774 15.9551 20.5806 15.9551 20.5161 15.9551C20.3548 15.8902 20.3226 15.728 20.3548 15.5657C20.4516 15.4359 20.6129 15.4035 20.7742 15.4035C21.0323 15.6306 21.2258 15.2737 21.5484 15.371C21.8065 15.4035 21.9032 15.6955 21.9677 15.9226C21.6774 15.8577 21.3548 15.728 21 15.7928C20.9032 15.9551 21 16.1173 21.0645 16.2471C21.2581 16.2146 21.5161 16.1822 21.7742 16.1498C21.9032 16.1498 22.0323 16.2146 22.0645 16.3444C22.7097 16.4742 23.4839 16.4418 23.9677 16.8636C23.9677 17.0582 24.2581 17.2529 24.0645 17.4151C23.4194 16.7662 22.4839 16.6689 21.6129 16.8636C21.4516 16.7662 21.6452 16.5715 21.5161 16.4742C20.9677 16.5715 20.4839 16.7662 19.9677 16.9933L19.9032 16.9609C19.9355 16.8636 19.9032 16.7987 19.9355 16.7338C19.8065 16.6689 19.7097 16.5715 19.5484 16.5715C19.3226 16.9609 19.7097 17.3827 19.6774 17.772C19.8387 18.1938 20.0645 17.6423 20.3226 17.7072C20.5161 17.7072 20.8065 17.5449 20.9355 17.772C20.6774 17.9018 20.4194 17.9343 20.1613 18.129C20.0968 18.2263 20.1935 18.2912 20.2258 18.3561C20.4516 18.6481 20.9355 18.4534 21.2258 18.6156C21.2258 18.6805 21.1935 18.7454 21.129 18.8103C20.7419 18.8428 20.5484 19.1672 20.3226 19.4268C20.129 19.3619 20.1935 19.1348 20.1613 19.005C20.129 18.8428 19.9355 18.8428 19.8387 18.8428C19.7419 19.2646 19.5806 19.6539 19.5484 20.0433C19.6129 20.3028 19.9032 20.2055 20.0645 20.2379C20.3226 20.3028 20.1613 20.6273 20.2581 20.7895C20.4839 20.8544 20.7742 20.8544 21.0645 20.7895C21.0968 20.822 21.129 20.8869 21.0968 20.9842C21 21.1464 20.8387 21.1789 20.6774 21.2113C20.6129 21.2762 20.4839 21.3735 20.5484 21.5033C20.9677 21.7305 20.5161 22.3794 20.9355 22.6065C21.3548 22.8336 22 22.7363 22.3871 22.5416C22.6452 22.4767 22.8065 22.1847 23.1613 22.282C23.1935 22.3469 23.2581 22.3145 23.2581 22.4118C23.9355 22.4443 24.5484 22.3469 25.129 22.2496C25.3548 22.282 25.5806 22.0874 25.7097 22.282C25.7097 22.3145 25.7419 22.3469 25.7097 22.3794C24.871 22.7038 23.9032 22.6714 23 22.8012C22.4516 22.9634 22.7097 23.5799 22.6452 24.0341C22.3226 24.1963 22.4194 23.7097 22.2258 23.5799C21.3548 23.6123 20.6452 23.9043 19.8387 24.099C19.3548 24.3586 19.0968 24.9426 18.9677 25.4617C18.9677 25.7537 18.8387 26.1755 19.129 26.3053C19.7419 26.5 20.7419 26.6298 21.3226 26.1755C21.7742 26.0133 22.2258 25.5915 22.7419 25.7862C23 25.3644 23.4516 24.8777 23.9355 24.6181C24.129 24.5532 24.129 24.3261 24.3548 24.2937C24.5484 24.3261 24.4516 24.5857 24.5161 24.683C24.9677 24.7479 25.4194 24.5532 25.871 24.6181C26.129 24.7155 26.1613 24.975 26.2581 25.2022C26.2581 25.2995 26.2258 25.4293 26.1935 25.4942C26.3548 25.8186 26 25.9809 26.129 26.3702C25.5806 27.2463 24.7742 27.9601 23.7097 28.1547C23.4839 28.2521 23.6452 28.5765 23.4839 28.7388C22.3226 29.5175 20.5806 29.8744 20.1935 31.4642C19.9677 32.3078 20.6774 32.6323 21.1935 32.9567C21.871 33.0865 22.1935 33.9626 22.9355 33.7679C23.2581 32.9243 23.3226 32.0158 23.6774 31.1722C24.6452 29.485 25.7742 27.8627 27.2581 26.6622C27.7419 26.3053 28.2581 25.7862 28.9355 25.7862C29.0323 25.7862 28.9677 25.8835 28.9677 25.916C28.3226 26.1106 27.8065 26.5324 27.3871 26.9542C27.0323 27.3436 26.5161 27.7654 26.2903 28.2845C25.4516 29.3228 24.6129 30.5557 24.0645 31.7562C24.0323 32.1456 23.9677 32.5998 24.0323 32.9892C24.1613 32.9892 24.1935 32.827 24.2903 32.7621C24.8065 31.594 25.4194 30.426 26.0645 29.3552C26.4516 28.8361 26.8065 28.1223 27.3871 27.8627L27.4194 27.8952C26.6452 28.901 26.0323 30.0042 25.4839 31.1398C25.0968 32.0483 24.5806 32.8918 24.5161 33.9301C24.6129 34.1897 24.9677 34.0923 25.1613 34.287C25.3226 34.3844 25.3548 34.579 25.3226 34.7413C25.2903 34.871 25.1613 35.0008 25.0323 35.0008C24.7742 34.9359 24.8065 34.6439 24.6452 34.4817C24.5484 34.4817 24.4516 34.3844 24.3871 34.4817C24.3548 34.871 24.7419 35.2604 24.4194 35.6173C24.129 35.812 24.1935 35.3577 24 35.228C23.9032 35.1631 23.7097 35.1631 23.6129 35.228C22.6452 36.1364 21.2903 36.6231 19.9355 36.7854C19.5161 36.98 18.6129 36.6556 18.6129 37.3694C18.6774 38.0183 18.5806 38.8295 19.0968 39.2188C20.4516 39.3486 21.8387 39.3486 23.0968 38.9917C24.0645 38.797 24.9677 38.4725 25.7742 37.9859C27.0968 36.9476 27.7742 35.2928 28.6129 33.8652C30 31.8536 31 29.3877 30.4194 26.7271C30.3548 25.2671 28.9032 24.8128 28.0968 23.9043C27.871 23.7421 27.7097 24.0017 27.5161 23.9692C27.129 23.7745 27.7097 23.7421 27.7097 23.515C27.3871 23.0932 27.4194 22.4767 27.0968 22.0549C26.9032 21.9251 26.7742 22.1522 26.5806 22.0549C26.4516 21.3411 26.2581 20.6597 25.9355 20.0433C25.1935 19.5566 25.1613 20.7895 24.5161 20.7571C24.5161 20.7246 24.4516 20.7246 24.4839 20.6597C24.4839 20.5624 24.6452 20.53 24.7097 20.4651C24.871 20.3353 24.871 20.0433 24.871 19.8486C24.7419 19.6539 24.5161 19.6539 24.2903 19.6215C24.1613 19.6215 24.129 19.4917 24.1613 19.3619C24.3548 19.0699 24.7097 19.3295 25.0323 19.3295C25.3548 19.1023 25.6774 19.1997 26.0323 19.0699C26.2903 18.9725 26.3548 18.7454 26.3226 18.4859C26.4194 18.4534 26.5484 18.5507 26.6129 18.421C26.6129 18.2587 26.5806 18.0641 26.4839 17.9343C25.3871 17.3503 24.5484 16.312 23.2903 15.9226C23.0968 15.8253 22.6774 15.9875 22.7419 15.6306C22.6129 15.2737 22.1613 15.2413 21.8065 15.1439C21.7419 15.0466 21.7742 14.9168 21.871 14.8844C21.9032 14.8195 21.9032 14.7546 21.8387 14.6897C21.4839 14.5923 21.3226 14.0732 21.129 13.7488V13.7488ZM21.8065 13.6839C21.7097 13.6839 21.6129 13.6839 21.5484 13.7488C21.5161 13.8461 21.5161 14.0083 21.6129 14.1057C23.1613 15.4035 24.9677 16.604 26.6774 17.6747C26.8065 17.7072 26.9677 17.8369 27.0968 17.7396C27.1935 17.6423 27.129 17.5125 27.0645 17.4476C25.2258 16.4093 23.4839 15.0141 21.8065 13.6839V13.6839ZM23.6452 17.8045C22.9355 17.8694 22.2903 17.5774 21.8065 17.0907C21.7097 17.1231 21.7097 17.2529 21.7419 17.3178C21.9677 17.6747 22.4839 17.9018 22.9355 18.0641C23.2581 18.7779 24 19.0699 24.7097 19.1348C24.7742 19.1023 24.871 19.1023 24.8387 19.005C24.3226 18.8428 23.6774 18.6805 23.4194 18.129C23.5161 18.0316 23.6774 18.0641 23.7742 17.9992C23.8387 17.9018 23.7097 17.8694 23.6452 17.8045V17.8045ZM25.8065 18.2587C25.2581 18.421 24.6774 18.129 24.1613 17.9343L24.0968 18.0316C24.6452 18.3236 25.1613 18.7779 25.871 18.6481C25.9677 18.6156 26.0323 18.5507 26.0323 18.421C26.0645 18.2912 25.9677 18.2587 25.8065 18.2587V18.2587ZM28.129 18.2587C28.0645 18.0965 27.9355 17.9992 27.7419 17.9992C27.4839 17.9018 27.2581 18.0641 27.129 18.2263C27.1613 18.6156 26.5806 18.6156 26.6774 19.0699C26.5806 19.297 26.3548 19.297 26.1935 19.3619C26.1935 19.4592 26.1935 19.4917 26.2258 19.5566C26.5161 19.589 26.7742 19.7837 27.0968 19.6539C27.2258 19.6539 27.2258 19.7512 27.2258 19.8486C27 20.0433 26.6452 19.9459 26.3871 19.881V20.0108C26.6774 20.2379 27.129 20.3677 27.5161 20.2055C28.0968 19.8161 28.129 19.005 28.129 18.2587V18.2587ZM17.5484 18.9401C17.2258 18.6805 16.7742 18.7454 16.4194 18.6156C15.7742 18.4534 15.2258 18.8428 14.7742 19.1348C13.5806 19.6539 14.0323 21.1464 13.3871 21.99C13.2903 22.5416 13.2903 23.2554 13.7097 23.6448C14.0645 23.6123 14.3548 23.9368 14.7097 23.8394C15.2581 23.5799 14.4516 23.2554 14.6774 22.8336C15 22.8012 14.9032 23.223 15.129 23.3203C15.3548 23.3852 15.4194 23.1256 15.6129 23.0932C15.9032 23.2554 15.7419 23.6448 15.9355 23.9043C16.3548 24.5532 17.129 24.7804 17.9355 24.8453C18.4839 24.8128 18.7742 24.4235 19.0323 23.9368C19.1935 23.3852 19.4194 22.574 18.9677 22.1198C18.8065 22.0225 18.6452 22.2171 18.5484 22.1198C18.5806 21.8602 18.7097 21.6007 18.9677 21.4709C19.0968 21.2113 19 20.7571 18.8065 20.53C18.8387 20.4651 18.9355 20.4326 19 20.4326C19.129 20.0108 19.1613 19.3943 18.7742 19.1023C18.5806 19.0374 18.3871 18.8752 18.1935 18.9401C18.1935 18.9401 18.1613 18.9401 18.1613 18.9077C18 18.9077 17.7419 18.8428 17.5484 18.9401V18.9401ZM18.6452 19.881C18.6129 19.7837 18.5484 19.7188 18.4194 19.7512C18.2258 20.0108 18.2903 20.4326 18.0645 20.6922C17.9677 20.7571 17.8065 20.5948 17.7419 20.7571L17.871 20.9193C18.4194 21.1464 18.1935 20.2704 18.6452 20.3353V19.881V19.881ZM14.9032 20.822C14.6452 21.0491 14.6452 20.5948 14.3871 20.6597C14.0645 21.0491 14.2581 21.698 13.9677 22.0549C14 22.1522 14.0645 22.1847 14.129 22.1847C14.4516 21.9576 14.2258 21.406 14.5484 21.2113C14.7097 21.3411 14.5484 21.6656 14.7742 21.7305C14.9677 21.5358 14.9677 21.114 14.9032 20.822V20.822ZM17.1613 20.7571C17.0645 20.8544 16.8387 20.822 16.8065 20.6597C16.5484 20.6922 16.4194 21.0491 16.3226 21.2113C16.2903 21.3735 16.0968 21.4384 15.9677 21.3087C15.7097 21.6007 15.6129 22.1522 15.6774 22.6065C15.7097 22.7038 15.8387 22.7038 15.9032 22.6714L15.9355 21.99C15.9677 21.7629 16.1613 21.8927 16.2903 21.9576C16.4839 21.8602 16.4516 21.6007 16.5161 21.406C16.6129 21.114 16.7742 21.2762 16.9677 21.2438C17.129 21.1464 17.2581 21.0166 17.2581 20.822L17.1613 20.7571ZM18 21.8927C17.9355 21.5358 17.5484 21.6331 17.2581 21.6331C17.2258 21.7304 17.0968 21.698 17.129 21.8278L17.3226 21.7629C17.5484 22.0549 17 22.0225 17.0323 22.3145H17.871C18.0645 22.2496 18.0323 22.0549 18 21.8927V21.8927ZM18.5806 22.9634C18.4516 22.9958 18.2258 22.8985 18.1613 23.0283C18.2258 23.0932 18.2258 23.2554 18.3548 23.223C18.4516 23.1581 18.6774 23.1256 18.5806 22.9634V22.9634ZM18.4516 23.8719C18.4516 23.7421 18.5806 23.6772 18.5806 23.5799C18.5161 23.515 18.4194 23.5799 18.3548 23.6123C18.129 23.5474 18 23.8719 17.7419 23.7097V23.8394C17.9032 23.807 18.0323 23.9368 18.1613 24.0017C18.2903 24.0341 18.4194 23.9692 18.4516 23.8719V23.8719ZM16.129 24.9102C15.7097 24.8453 15.6129 24.2612 15.129 24.3261C14.9032 24.683 14.5806 25.0724 14.129 25.2671C13.129 25.8511 13.3548 27.1489 12.871 28.0574C12.4839 30.1664 11.5161 32.4052 12.3871 34.6115C12.9355 34.9359 12.7097 35.7471 13.2258 36.104C13.7097 36.4285 14.3871 36.688 15 36.5907C16.0323 36.0391 16.9355 36.8178 18 36.7529C19.1613 36.3311 20.4839 36.2338 21.6452 35.7146C21.871 35.6173 22.2581 35.5524 22.3871 35.2928C22.2258 34.9359 22.0645 34.4817 21.8387 34.1572C21.3871 33.6381 20.6452 33.7354 20.0645 33.4759C19.2903 33.119 19.2258 34.1572 18.6774 34.1572C18.5161 34.0923 18.4516 33.9301 18.4839 33.8003C18.5806 33.4434 19 33.3461 19.2581 33.0216C19.4194 32.5674 19.2258 32.0483 18.871 31.7238C18.7097 31.3669 19.2903 31.1073 19 30.7829C18.2903 30.8153 17.8387 31.3669 17.2581 31.6913C17.1613 31.7562 17 31.7887 16.9355 31.6589C17.0323 31.302 17.4839 30.9451 17.8387 30.7504V30.6855C17.8065 30.6855 17.7742 30.6855 17.7742 30.6531C16.9677 30.7504 16.6129 30.1015 16.0968 29.777C15.9032 29.6797 15.6452 29.7121 15.4839 29.6148C15.4516 29.4526 15.4839 29.2579 15.6129 29.1606C16.5806 29.2255 17.3226 30.4584 18.3226 29.777C19.4839 30.3286 20.5806 29.7121 21.4839 29.1606C21.7742 29.0308 22.0968 28.7063 22.4839 28.9334C22.8387 28.8686 23.0645 28.6739 23.3871 28.5116C23.3871 27.7978 23.2903 27.1165 23.0323 26.4676C22.9355 26.3053 22.7742 26.1431 22.5484 26.208C21.7419 26.5 21 27.1489 20.0645 26.9867C19.8065 27.0516 20.1613 27.2463 20.0645 27.376H19.9032L18.6774 26.3702C18.2903 26.1431 17.871 25.916 17.4839 25.624C17.5484 25.0724 16.871 25.3644 16.5806 25.1373L16.129 24.9102V24.9102ZM25.7742 24.975C25.3548 24.8777 25 25.1373 24.5806 25.1373C24.3871 25.2022 24.2581 25.0075 24.0968 25.1373C23.5161 25.3319 23.2581 25.9809 23.1935 26.5324C23.3871 26.8245 23.5161 27.3436 23.9677 27.4085C24.7419 27.376 25.3871 26.8894 25.8065 26.3378C25.9355 26.0782 25.9355 25.7537 25.9677 25.4293C25.9355 25.3319 25.8065 25.2671 25.871 25.1048L25.7742 24.975V24.975ZM17.9355 37.8236C17.6129 37.5641 17.1613 37.3694 16.7419 37.1747C16.1935 37.0774 15.3871 36.688 14.9677 37.272C14.6129 37.4343 13.9032 37.3694 13.871 37.8885C13.9355 38.0832 14.1935 38.213 14.0968 38.4725C14.129 38.6348 14.3871 38.6023 14.4516 38.7646C14.4516 39.1539 14.9032 39.089 14.9677 39.4459C15.1613 39.673 15.5161 39.673 15.871 39.673C16.6452 39.6082 17.3871 39.4135 18.0968 39.1539C18.2258 38.7321 18.2258 38.1805 17.9355 37.8236V37.8236ZM28.4194 39.9002C27.9355 39.2837 27.3226 38.5374 26.3871 38.6023C26.2581 38.6348 26.2581 38.7321 26.2581 38.8295C26.5484 39.4459 27.129 40.03 27.6129 40.5166C27.9032 40.3869 28.129 40.1273 28.4194 39.9002ZM24.6452 40.2571C24.4839 40.03 24.6452 39.5433 24.2581 39.5433C23.7742 39.7055 23 40.1273 22.8387 40.1597C22.6774 40.2246 21.0968 40.4193 20.2903 40.0624C19.8387 40.0948 19.2903 40.0948 18.8387 40.1597C18.5484 40.2571 18.3226 40.5166 17.9677 40.5166C17.7419 40.614 17.2258 40.5166 17.2258 40.5166C16.8387 40.4842 16.4516 40.2571 16.0645 40.2895C15.8065 40.3544 15.7097 40.614 15.6129 40.8411C17.8387 42.5607 21.2903 43.1123 24.1613 42.2363C24.4839 42.074 24.9355 42.0416 25.1613 41.8145C24.9355 41.3278 24.8387 40.8087 24.6452 40.2571ZM26.1935 39.7379C25.871 40.03 25.0968 39.5433 25.0323 40.1597C25.129 40.6789 25.2581 41.2305 25.5484 41.6847C25.8065 41.6522 26.0968 41.5225 26.3548 41.3927C26.4194 41.0682 26.0645 40.906 26.1613 40.5815C26.4516 40.5166 26.5806 40.9384 26.871 41.0682C27.0323 41.0033 27.1935 40.906 27.2581 40.7762C27.0968 40.322 26.7742 40.1597 26.3871 39.7704L26.1935 39.7379V39.7379Z" fill="#2E1475"/>
<path d="M8 49.0327H8.5751V53.0163C8.5751 54.0612 9.2141 54.7143 10.2365 54.7143C11.227 54.7143 11.8979 54.0612 11.8979 53.0163V49.0327H12.473V53.0163C12.473 54.3878 11.5784 55.2694 10.2685 55.2694C8.9585 55.2694 8.03195 54.3878 8.03195 53.0163L8 49.0327ZM13.7191 55.1714H14.2942V53.0816C14.2942 52.8857 14.2942 52.6571 14.3581 52.4939C14.5498 51.7755 15.1568 51.2531 15.8597 51.2531C16.6585 51.2531 16.7543 51.8735 16.7543 52.5592V55.2041H17.3294V52.3959C17.3294 51.3184 16.978 50.698 15.9236 50.698C14.9332 50.698 14.422 51.4163 14.2622 51.8082H14.2303C14.2303 51.8082 14.2622 51.6449 14.2622 51.449V50.7959H13.7191V55.1714ZM18.7991 53.5714C18.7991 55.0408 19.7576 55.2041 20.2369 55.2041C20.3966 55.2041 20.4925 55.1714 20.4925 55.1714V54.649C20.4925 54.649 20.4286 54.6816 20.3008 54.6816C19.9813 54.6816 19.3742 54.551 19.3742 53.5061V51.3184H20.4286V50.8286H19.3742V49.5551H18.8311V50.8286H18.2879V51.3184H18.8311L18.7991 53.5714V53.5714ZM21.4829 49.7837H22.058V49.0327H21.4829V49.7837V49.7837ZM21.4829 55.1714H22.058V50.7959H21.4829V55.1714V55.1714ZM23.368 54.1265C23.368 55.0735 23.975 55.2041 24.3265 55.2041C24.4223 55.2041 24.5182 55.1714 24.5182 55.1714V54.649H24.3904C24.1667 54.649 23.9111 54.551 23.9111 53.9959V49.0327H23.336C23.368 49.0327 23.368 54.1265 23.368 54.1265V54.1265ZM29.4385 50.698C28.3202 50.698 27.3937 51.5469 27.3937 53.0163C27.3937 54.3551 28.3202 55.302 29.5663 55.302C30.4928 55.302 31.0999 54.6816 31.0999 54.6816L30.8443 54.2245C30.8443 54.2245 30.3331 54.7469 29.5663 54.7469C28.7036 54.7469 27.9688 54.1265 27.9368 53.0163H31.1318C31.1318 53.0163 31.1638 52.8204 31.1638 52.7225C31.1638 51.6122 30.5887 50.698 29.4385 50.698V50.698ZM28.0007 52.5265C28.1285 51.6449 28.7356 51.1878 29.4385 51.1878C30.0455 51.1878 30.5887 51.6122 30.6206 52.5265H28.0007ZM33.2725 55.1714H33.8795L35.477 50.7633H34.9019L33.7517 53.9959C33.6559 54.2245 33.592 54.5184 33.592 54.5184H33.56C33.56 54.5184 33.4961 54.2245 33.4322 53.9959L32.282 50.7633H31.675L33.2725 55.1714V55.1714ZM38.0331 50.698C36.9148 50.698 35.9882 51.5469 35.9882 53.0163C35.9882 54.3551 36.9148 55.302 38.1609 55.302C39.0874 55.302 39.6945 54.6816 39.6945 54.6816L39.4389 54.2245C39.4389 54.2245 38.9277 54.7469 38.1609 54.7469C37.2982 54.7469 36.5634 54.1265 36.5314 53.0163H39.7264C39.7264 53.0163 39.7584 52.8204 39.7584 52.7225C39.7584 51.6122 39.1833 50.698 38.0331 50.698V50.698ZM36.5634 52.5265C36.6912 51.6449 37.2982 51.1878 38.0011 51.1878C38.6082 51.1878 39.1513 51.6122 39.1833 52.5265H36.5634ZM40.7488 55.1714H41.3239V53.3102C41.3239 53.0163 41.3559 52.7225 41.4517 52.4612C41.6434 51.8082 42.0588 51.3184 42.6658 51.3184C42.7617 51.3184 42.8575 51.351 42.8575 51.351V50.7633C42.8575 50.7633 42.7617 50.7306 42.6339 50.7306C41.9949 50.7306 41.5156 51.2531 41.3239 51.9061H41.292C41.292 51.9061 41.3239 51.7429 41.3239 51.5469V50.7633H40.7808V55.1714H40.7488ZM43.3048 56.7388C43.3048 56.7388 43.5924 57 44.0397 57C44.5828 57 45.0301 56.6408 45.2538 56.0857L47.2986 50.7633H46.6596L45.4455 53.9633C45.3496 54.1918 45.3177 54.4204 45.3177 54.4204H45.2857C45.2857 54.4204 45.2218 54.1592 45.126 53.9633L43.9119 50.7633H43.3048L45.0301 55.1061L44.7745 55.7265C44.6148 56.1184 44.3592 56.4449 43.9758 56.4449C43.7202 56.4449 43.4646 56.249 43.4646 56.249L43.3048 56.7388V56.7388ZM52.155 50.698C50.9409 50.698 49.9824 51.6449 49.9824 53.0163C49.9824 54.3878 50.9409 55.302 52.155 55.302C53.2093 55.302 53.7844 54.6163 53.7844 54.6163L53.5288 54.1592C53.5288 54.1592 53.0496 54.7796 52.1869 54.7796C51.2604 54.7796 50.5575 54.0612 50.5575 53.0163C50.5575 51.9714 51.2604 51.2531 52.1869 51.2531C52.9537 51.2531 53.401 51.7755 53.401 51.7755L53.6886 51.3184C53.6886 51.3184 53.1774 50.698 52.155 50.698V50.698ZM54.8068 55.1714H55.3819V53.0816C55.3819 52.8857 55.4139 52.6571 55.4458 52.4939C55.6375 51.7755 56.2446 51.2531 56.9475 51.2531C57.7462 51.2531 57.8421 51.8735 57.8421 52.5592V55.2041H58.4172V52.3959C58.4172 51.3184 58.0657 50.698 57.0114 50.698C56.0529 50.698 55.5097 51.3837 55.35 51.7755H55.318C55.318 51.7755 55.35 51.6122 55.35 51.4163V49.0327H54.7749L54.8068 55.1714V55.1714ZM59.6952 49.7837H60.2703V49.0327H59.6952V49.7837V49.7837ZM59.7271 55.1714H60.3022V50.7959H59.7271V55.1714ZM61.6122 54.1265C61.6122 55.0735 62.2192 55.2041 62.5707 55.2041C62.6665 55.2041 62.7624 55.1714 62.7624 55.1714V54.649H62.6346C62.4109 54.649 62.1873 54.551 62.1873 53.9959V49.0327H61.6122V54.1265V54.1265ZM65.2865 50.698C64.2002 50.698 63.4014 51.6122 63.4014 52.9837C63.4014 54.3551 64.1043 55.302 65.2226 55.302C66.3089 55.302 66.6603 54.4204 66.6603 54.4204H66.6923C66.6923 54.4204 66.6603 54.551 66.6603 54.7469V55.2041H67.2035V49.0327H66.6284V51.1878C66.6284 51.3837 66.6603 51.5143 66.6603 51.5143H66.6284C66.6284 51.5143 66.2769 50.698 65.2865 50.698V50.698ZM65.3184 54.7469C64.5516 54.7469 64.0085 54.0612 64.0085 52.9837C64.0085 51.8735 64.6155 51.2204 65.3504 51.2204C66.245 51.2204 66.6603 52.102 66.6603 52.9837C66.6603 54.2245 65.9894 54.7469 65.3184 54.7469ZM70.7819 49.7837H71.357V49.0327H70.7819V49.7837ZM70.7819 55.1714H71.357V50.7959H70.7819V55.1714ZM72.3474 54.649C72.3474 54.649 72.8906 55.302 73.881 55.302C74.7117 55.302 75.3188 54.7796 75.3188 54.0612C75.3188 52.6245 73.0823 52.8857 73.0823 51.9061C73.0823 51.4163 73.4976 51.2204 73.913 51.2204C74.6159 51.2204 74.9673 51.6122 74.9673 51.6122L75.2229 51.1551C75.2229 51.1551 74.8076 50.6653 73.9449 50.6653C73.1781 50.6653 72.5072 51.0898 72.5072 51.8735C72.5072 53.3102 74.7437 53.0816 74.7437 54.0286C74.7437 54.4857 74.3603 54.7143 73.913 54.7143C73.1462 54.7143 72.6669 54.1918 72.6669 54.1918L72.3474 54.649V54.649ZM79.4723 55.1714H80.0793L81.1017 52.0367L81.2295 51.5796H81.2615C81.2615 51.5796 81.3254 51.8408 81.3893 52.0367L82.4117 55.1714H83.0187L84.4245 50.7633H83.8175L82.7951 54.0286L82.6673 54.4857H82.6353C82.6353 54.4857 82.5714 54.2245 82.5075 54.0286L81.4851 50.7633H80.942L79.9196 54.0286C79.8557 54.2245 79.7918 54.4857 79.7918 54.4857H79.7598C79.7598 54.4857 79.6959 54.2245 79.632 54.0286L78.6096 50.7633H78.0026L79.4723 55.1714V55.1714ZM86.9805 50.698C85.8623 50.698 84.9357 51.5469 84.9357 53.0163C84.9357 54.3551 85.8623 55.302 87.1083 55.302C88.0349 55.302 88.6419 54.6816 88.6419 54.6816L88.3863 54.2245C88.3863 54.2245 87.8751 54.7469 87.1083 54.7469C86.2457 54.7469 85.5108 54.1265 85.4789 53.0163H88.6739C88.6739 53.0163 88.7058 52.8204 88.7058 52.7225C88.7378 51.6122 88.1307 50.698 86.9805 50.698V50.698ZM85.5428 52.5265C85.6706 51.6449 86.2776 51.1878 86.9805 51.1878C87.5876 51.1878 88.1307 51.6122 88.1627 52.5265H85.5428V52.5265ZM89.7602 54.1265C89.7602 55.0735 90.3672 55.2041 90.7187 55.2041C90.8145 55.2041 90.9104 55.1714 90.9104 55.1714V54.649H90.7826C90.5589 54.649 90.3353 54.551 90.3353 53.9959V49.0327H89.7602V54.1265V54.1265ZM91.805 54.1265C91.805 55.0735 92.412 55.2041 92.7635 55.2041C92.8593 55.2041 92.9552 55.1714 92.9552 55.1714V54.649H92.8274C92.6037 54.649 92.3481 54.551 92.3481 53.9959V49.0327H91.7731V54.1265H91.805ZM93.2427 49.9469C93.2427 49.9469 93.3705 50.0776 93.5622 50.0776C93.7539 50.0776 93.8817 49.9469 93.8817 49.7837C93.8817 49.4571 93.4025 49.5225 93.4025 49.2939C93.4025 49.1959 93.4664 49.1306 93.5942 49.1306C93.722 49.1306 93.8179 49.2286 93.8179 49.2286L93.8817 49.098C93.8817 49.098 93.7859 49 93.5942 49C93.4025 49 93.2747 49.1306 93.2747 49.2939C93.2747 49.6204 93.7539 49.5551 93.7539 49.7837C93.7539 49.8816 93.69 49.9469 93.5942 49.9469C93.4344 49.9469 93.3386 49.849 93.3386 49.849L93.2427 49.9469ZM94.0415 50.0776H94.1693L94.2012 49.4245V49.2612C94.2012 49.2612 94.2332 49.3592 94.2652 49.4245L94.4569 49.8816H94.5847L94.7764 49.4245C94.8083 49.3592 94.8402 49.2612 94.8402 49.2612V49.4245L94.8722 50.0776H95L94.9361 49.0327H94.7764L94.5527 49.5878L94.4888 49.7184C94.4888 49.7184 94.4569 49.6204 94.4249 49.5878L94.2652 49.0327H94.1054L94.0415 50.0776V50.0776Z" fill="#2E1475"/>
<path d="M41.8614 9H45.4346C47.2531 9 48.5293 9.93787 48.5293 11.6196C48.5293 12.5574 48.0826 13.366 47.3169 13.7864V13.8187C48.4017 14.1421 48.944 15.177 48.944 16.2119C48.944 18.2494 47.3488 19.1549 45.4984 19.1549H41.8614V9ZM45.4665 13.1719C46.2641 13.1719 46.7108 12.5898 46.7108 11.8783C46.7108 11.1668 46.296 10.617 45.4346 10.617H43.7118V13.1719H45.4665ZM45.626 17.5702C46.5513 17.5702 47.0936 16.9557 47.0936 16.0826C47.0936 15.2417 46.5513 14.6272 45.626 14.6272H43.6799V17.5702H45.626ZM53.7296 11.7166C55.931 11.7166 57.6857 13.3013 57.6857 15.5328C57.6857 17.7643 55.931 19.3489 53.7296 19.3489C51.5282 19.3489 49.7735 17.7643 49.7735 15.5328C49.7735 13.3013 51.5601 11.7166 53.7296 11.7166ZM53.7296 17.7966C54.8781 17.7966 55.8672 16.8911 55.8672 15.5328C55.8672 14.1745 54.8781 13.2689 53.7296 13.2689C52.5492 13.2689 51.592 14.2068 51.592 15.5328C51.592 16.8911 52.5811 17.7966 53.7296 17.7966ZM58.228 18.2494C58.228 18.2494 59.2171 19.3166 61.0356 19.3166C62.7584 19.3166 63.7793 18.3464 63.7793 17.1174C63.7793 14.7889 60.2699 14.886 60.2699 13.8834C60.2699 13.4306 60.7165 13.2366 61.1951 13.2366C62.2798 13.2366 62.9498 13.8511 62.9498 13.8511L63.6198 12.4928C63.6198 12.4928 62.8222 11.6519 61.1951 11.6519C59.6318 11.6519 58.4514 12.4281 58.4514 13.7864C58.4514 16.1472 61.9608 15.9855 61.9608 17.0851C61.9608 17.5055 61.5141 17.7319 61.0037 17.7319C59.8232 17.7319 59.0575 16.9234 59.0575 16.9234L58.228 18.2494ZM65.3745 16.503C65.3745 18.9609 67.3525 19.2519 68.3734 19.2519C68.7244 19.2519 68.9158 19.2196 68.9158 19.2196V17.6349C68.9158 17.6349 68.7882 17.6672 68.5968 17.6672C68.1182 17.6672 67.1611 17.5055 67.1611 16.3089V13.463H68.7882V12.0077H67.1611V9.87319H65.4064V11.9753H64.4174V13.4306H65.3426L65.3745 16.503ZM73.5099 11.7166C75.7113 11.7166 77.466 13.3013 77.466 15.5328C77.466 17.7643 75.7113 19.3489 73.5099 19.3489C71.3086 19.3489 69.5539 17.7643 69.5539 15.5328C69.5539 13.3013 71.3405 11.7166 73.5099 11.7166ZM73.5418 17.7966C74.6904 17.7966 75.6794 16.8911 75.6794 15.5328C75.6794 14.1745 74.6904 13.2689 73.5418 13.2689C72.3614 13.2689 71.4043 14.2068 71.4043 15.5328C71.3724 16.8911 72.3614 17.7966 73.5418 17.7966ZM78.5507 19.1549H80.3373V15.8238C80.3373 15.4681 80.3692 15.1447 80.465 14.8536C80.7202 13.9804 81.4221 13.366 82.4111 13.366C83.3363 13.366 83.5596 13.9804 83.5596 14.8536V19.1872H85.3462V14.4655C85.3462 12.5251 84.4529 11.6843 82.8577 11.6843C81.3902 11.6843 80.6245 12.5898 80.3054 13.2043H80.2735C80.2735 13.2043 80.3054 12.9779 80.3054 12.7191V11.8783H78.5826L78.5507 19.1549ZM46.1365 21.354C43.2014 21.354 41 23.6179 41 26.5609C41 29.5362 43.1056 31.8647 46.1684 31.8647C48.7207 31.8647 50.0926 30.2153 50.0926 30.2153L49.1355 28.8894C49.1355 28.8894 47.955 30.183 46.2322 30.183C44.1585 30.183 42.8504 28.4689 42.8504 26.5609C42.8504 24.6851 44.0947 23.0681 46.2003 23.0681C47.7955 23.0681 48.944 24.1353 48.944 24.1353L49.8054 22.777C49.8373 22.7123 48.5931 21.354 46.1365 21.354ZM51.3687 31.6706H53.1553V28.3072C53.1553 27.9515 53.1872 27.6604 53.283 27.3694C53.5382 26.4962 54.272 25.8494 55.2291 25.8494C56.1543 25.8494 56.3776 26.4638 56.3776 27.337V31.6706H58.1642V26.9813C58.1642 25.0409 57.2709 24.2 55.6757 24.2C54.4315 24.2 53.5382 24.9438 53.1872 25.6553H53.1553C53.1553 25.6553 53.1872 25.3966 53.1872 25.0409V21.5157H51.4006L51.3687 31.6706ZM69.8091 24.2C71.3724 24.2 71.8828 25.1379 71.8828 25.1379H71.9147V21.5157H73.7014V31.6706H72.0105V31.0562C72.0105 30.7974 72.0424 30.5711 72.0424 30.5711H72.0105C72.0105 30.5711 71.4043 31.8 69.7453 31.8C67.7992 31.8 66.5549 30.2477 66.5549 27.9838C66.5549 25.6877 67.9268 24.2 69.8091 24.2ZM70.16 30.3123C71.0852 30.3123 71.9786 29.6332 71.9786 28.0162C71.9786 26.8843 71.3724 25.7847 70.1919 25.7847C69.2029 25.7847 68.3734 26.5932 68.3734 28.0485C68.3734 29.4068 69.1072 30.3123 70.16 30.3123ZM75.3923 31.6706H77.1789V28.7923C77.1789 28.3719 77.2108 27.9515 77.3384 27.5957C77.6893 26.4962 78.5507 26.0757 79.2845 26.0757C79.5397 26.0757 79.6993 26.1081 79.6993 26.1081V24.3294C79.6993 24.3294 79.5398 24.297 79.3802 24.297C78.2955 24.297 77.4341 25.1379 77.0832 26.1728H77.0513C77.0513 26.1728 77.0832 25.914 77.0832 25.6553V24.394H75.3604L75.3923 31.6706ZM83.7829 24.2C85.8567 24.2 86.9733 25.72 86.9733 27.6604C86.9733 27.8868 86.9414 28.3719 86.9414 28.3719H81.9644C82.0921 29.6332 83.0492 30.3123 84.1339 30.3123C85.2824 30.3123 86.2076 29.5038 86.2076 29.5038L86.9095 30.7974C86.9095 30.7974 85.8248 31.8323 84.0063 31.8323C81.6135 31.8323 80.1459 30.086 80.1459 28.0162C80.114 25.7847 81.6454 24.2 83.7829 24.2ZM85.1548 27.1106C85.1229 26.1081 84.5167 25.5906 83.7191 25.5906C82.7939 25.5906 82.1559 26.1728 81.9963 27.1106H85.1548ZM88.3133 31.6706H90.0999V28.3072C90.0999 27.9515 90.1318 27.6281 90.2275 27.337C90.4827 26.4638 91.2165 25.8494 92.1736 25.8494C93.0989 25.8494 93.3222 26.4638 93.3222 27.337V31.6706H95.1088V26.9813C95.1088 25.0409 94.2155 24.2 92.6203 24.2C91.1527 24.2 90.387 25.1055 90.068 25.72H90.0361C90.0361 25.72 90.068 25.4936 90.068 25.2349V24.394H88.3452L88.3133 31.6706ZM96.4487 30.7651C96.4487 30.7651 97.4378 31.8323 99.2563 31.8323C100.979 31.8323 102 30.8621 102 29.6332C102 27.2723 98.4906 27.4017 98.4906 26.3991C98.4906 25.9464 98.9372 25.7523 99.4158 25.7523C100.501 25.7523 101.17 26.3668 101.17 26.3668L101.84 25.0085C101.84 25.0085 101.043 24.1677 99.4158 24.1677C97.8525 24.1677 96.6721 24.9438 96.6721 26.3021C96.6721 28.6306 100.181 28.5013 100.181 29.6009C100.181 30.0213 99.7348 30.2477 99.2244 30.2477C98.0439 30.2477 97.2782 29.4391 97.2782 29.4391L96.4487 30.7651ZM41.8614 44.154H43.6799V39.8851H48.2741V44.154H50.0926V33.9991H48.2741V38.3004H43.6799V33.9991H41.8614V44.154ZM55.3248 36.6834C57.5261 36.6834 59.2809 38.2681 59.2809 40.4996C59.2809 42.7311 57.5261 44.3157 55.3248 44.3157C53.1234 44.3157 51.3687 42.7311 51.3687 40.4996C51.4006 38.3004 53.1553 36.6834 55.3248 36.6834ZM55.3567 42.7957C56.5052 42.7957 57.4942 41.8902 57.4942 40.5319C57.4942 39.1736 56.5052 38.2681 55.3567 38.2681C54.1763 38.2681 53.2191 39.206 53.2191 40.5319C53.2191 41.8579 54.1763 42.7957 55.3567 42.7957ZM59.8551 43.2485C59.8551 43.2485 60.8441 44.3157 62.6627 44.3157C64.3536 44.3157 65.4064 43.3455 65.4064 42.1166C65.4064 39.7881 61.897 39.8851 61.897 38.8826C61.897 38.4298 62.3436 38.2357 62.8222 38.2357C63.9069 38.2357 64.5769 38.8502 64.5769 38.8502L65.2469 37.4919C65.2469 37.4919 64.4493 36.6511 62.8222 36.6511C61.2589 36.6511 60.0785 37.4272 60.0785 38.7855C60.0785 41.1464 63.5879 40.9847 63.5879 42.0843C63.5879 42.5047 63.1412 42.7311 62.6308 42.7311C61.4503 42.7311 60.6846 41.9226 60.6846 41.9226L59.8551 43.2485ZM66.523 36.8774H68.1501V37.3949C68.1501 37.6536 68.1182 37.88 68.1182 37.88H68.1501C68.1501 37.88 68.7563 36.6834 70.4791 36.6834C72.4252 36.6834 73.6695 38.2357 73.6695 40.4996C73.6695 42.8281 72.2657 44.3157 70.3834 44.3157C68.9477 44.3157 68.3096 43.3132 68.3096 43.3132H68.2777C68.2777 43.3132 68.3096 43.5719 68.3096 43.9277V47H66.523V36.8774ZM70.0643 42.7957C71.0533 42.7957 71.8828 41.9872 71.8828 40.5319C71.8828 39.1413 71.1491 38.2357 70.0962 38.2357C69.171 38.2357 68.2777 38.9149 68.2777 40.5319C68.2777 41.6962 68.8839 42.7957 70.0643 42.7957ZM78.806 41.5021C78.806 43.96 80.784 44.2511 81.8049 44.2511C82.1559 44.2511 82.3473 44.2187 82.3473 44.2187V42.6017C82.3473 42.6017 82.2197 42.634 82.0282 42.634C81.5497 42.634 80.5926 42.4723 80.5926 41.2757V38.4298H82.2197V36.9745H80.5926V34.8723H78.8379V36.9745H77.8808V38.4298H78.806V41.5021ZM87.4519 39.594H87.7071V39.497C87.7071 38.5268 87.1009 38.2034 86.3353 38.2034C85.3143 38.2034 84.3572 38.9149 84.3572 38.9149L83.6872 37.6213C83.6872 37.6213 84.8039 36.7157 86.4948 36.7157C88.3771 36.7157 89.4937 37.783 89.4937 39.6264V44.1864H87.8347V43.5719C87.8347 43.2808 87.8666 43.0545 87.8666 43.0545H87.8347C87.8347 43.0545 87.2924 44.3481 85.6334 44.3481C84.3572 44.3481 83.1768 43.5396 83.1768 42.0843C83.2087 39.7557 86.3033 39.594 87.4519 39.594ZM86.1119 42.9251C87.069 42.9251 87.739 41.8902 87.739 41.017V40.8553H87.42C86.4948 40.8553 85.0272 40.9847 85.0272 41.9872C85.0272 42.4723 85.3781 42.9251 86.1119 42.9251ZM63.556 31.6706H65.3426V21.5157H63.556V31.6706ZM90.9932 44.1217H92.7798V33.9991H90.9932V44.1217ZM97.374 22.4536C97.374 21.9362 96.9592 21.5157 96.4487 21.5157C95.9383 21.5157 95.5235 21.9362 95.5235 22.4536C95.5235 22.9711 95.9383 23.3915 96.4487 23.3915C96.9592 23.3915 97.374 22.9711 97.374 22.4536ZM95.8426 24.297C97.7568 23.7472 97.374 22.2272 97.374 22.2272L96.7997 22.3889C96.7997 22.4213 97.0549 23.3268 95.715 23.7149L95.8426 24.297ZM59.8551 31.6706H61.6417V24.3617H59.8551V31.6706ZM61.7693 22.4536C61.7693 21.9038 61.3227 21.4187 60.7484 21.4187C60.2061 21.4187 59.7275 21.8715 59.7275 22.4536C59.7275 23.0034 60.1742 23.4885 60.7484 23.4885C61.3227 23.4562 61.7693 23.0034 61.7693 22.4536ZM74.8499 44.154H76.6365V36.8451H74.8499V44.154ZM76.7641 34.937C76.7641 34.3872 76.3175 33.9021 75.7432 33.9021C75.2008 33.9021 74.7223 34.3549 74.7223 34.937C74.7223 35.4868 75.1689 35.9396 75.7432 35.9396C76.3175 35.9396 76.7641 35.4868 76.7641 34.937Z" fill="#2E1475"/>
</svg>
