<svg width="108" height="64" viewBox="0 0 108 64" fill="none" xmlns="http://www.w3.org/2000/svg">
<path fill-rule="evenodd" clip-rule="evenodd" d="M24.4115 35.0855L25.3978 35.652L25.4059 22.8899L27.0772 23.8556C29.9479 25.5115 31.1739 26.7555 31.1739 30.6907V37.7612L32.0136 37.2736L32.0217 30.5994C32.0217 26.4195 31.172 25.2432 28.5535 23.7308L18.164 17.7131L19.3403 17.0367L27.1325 21.5527C32.3291 24.5525 33.298 26.1177 33.298 30.4758L33.2887 36.5395L34.1762 36.0283L34.1837 30.6901C34.1837 25.8146 32.867 23.7805 29.2019 21.6595L20.2813 16.4908L21.3613 15.8722L29.2479 20.4372C32.5707 22.3551 35.1687 24.1507 35.1687 30.446L35.1606 36.9084L30.1597 39.7853L19.1049 33.3949L18.2621 33.8769L29.3119 40.2704L28.0436 41.0026L16.9914 34.6085L16.0088 35.175L27.0579 41.5691L25.3816 42.533C21.8787 44.5546 20.6719 44.5466 17.2069 42.5473L11.301 39.1238L11.2966 40.1045L17.6882 43.8C20.4577 45.4037 22.083 45.4211 24.7171 43.8988L35.1606 37.881V39.2332L25.6021 44.7397C22.3781 46.5999 20.0546 46.6272 17.1299 44.9459C17.1299 44.9459 11.2376 41.4573 11.2935 41.5684C11.2625 41.5063 11.2935 42.6026 11.2935 42.6026L16.3274 45.5111C19.8931 47.5806 22.4979 47.6284 25.9766 45.6186L35.16 40.3288V41.5734L26.9778 46.2831C22.7339 48.7346 19.9981 48.7675 15.602 46.2291L10.0321 43.0081L10.0395 37.2419C10.0395 37.2419 21.1328 30.9336 21.103 30.8652C21.0719 30.7957 21.103 29.8032 21.1098 29.8864C21.1179 29.9703 10.0433 36.2675 10.0433 36.2675L10.0476 34.7973L21.1098 28.4237V27.2903L10.0489 33.6632V30.8739C10.0489 28.0318 10.6904 26.6257 13.058 25.2581L20.054 21.234L19.2049 20.7428L12.7071 24.4867C10.0352 26.0257 9.20791 26.84 9.20791 30.6286V42.5212L8.02412 41.8386V30.446C8.02412 26.7977 8.98184 25.1599 11.6159 23.6463L17.9367 20.0055L17.0491 19.4894L11.6382 22.606C8.53652 24.3941 7.08504 25.5562 7.08504 30.7199V41.2939L6 40.6654L6.00807 31.2087C6.00807 26.2804 6.4124 24.4972 10.1793 22.316L17.3156 18.1982L22.3116 21.0968L22.3042 33.8607L23.1439 34.3514L23.1519 21.5794L24.4202 22.3141L24.4115 35.0855V35.0855ZM13.7847 26.2127C11.6022 27.4642 11.3091 28.707 11.3091 30.782V31.6925L21.111 26.0512V21.9998L13.7847 26.2127ZM18.7422 42.0585C20.9166 43.323 22.1396 42.9553 23.9364 41.9175L24.7251 41.4629L14.9387 35.7936L11.4295 37.8202L18.7422 42.0585V42.0585ZM29.9826 29.8398C29.9895 27.3244 29.0603 26.4493 27.2629 25.4109L26.4748 24.9568L26.4592 36.2656L29.9677 38.2916L29.9826 29.8398V29.8398ZM46.2377 27.2654C46.2377 28.0455 46.098 29.3094 46.9644 29.6392V29.6908H43.6919V29.6392C44.5738 29.3268 44.4707 28.0455 44.4707 27.2654V20.739C44.4707 19.9422 44.5745 18.6789 43.6919 18.3503V18.2982H49.232C49.5258 18.2982 49.8202 18.3323 50.0456 18.2118H50.0984V20.2198H50.0456C49.509 19.6142 48.7991 19.5441 48.0029 19.5441C47.3973 19.5441 46.7899 19.5614 46.2377 19.6658V22.8861H48.314C48.5743 22.8861 48.8513 22.8861 49.0581 22.7824H49.1115V24.6171H49.0581C48.7829 24.0985 48.0557 24.1333 47.5184 24.1333H46.2384V27.2654H46.2377V27.2654ZM54.2671 28.6933C55.2081 28.7486 56.0261 28.4306 56.7186 27.8486H56.7596L56.0403 29.6908H50.3462V29.6485C51.0536 29.3989 50.9704 28.3747 50.9704 27.7517V22.5296C50.9704 21.8924 51.0536 20.8813 50.3462 20.6179V20.5763H52.9927V20.6179C52.2865 20.8813 52.3834 21.9061 52.3834 22.5296V28.5685L54.2671 28.6933V28.6933Z" fill="#125FB7"/>
<path fill-rule="evenodd" clip-rule="evenodd" d="M65.625 25.0358C65.625 27.8617 63.2847 29.9119 60.5277 29.9119C57.785 29.9119 55.4727 27.9456 55.4727 25.106C55.4727 22.4738 57.7583 20.2727 60.6656 20.341C63.5735 20.3267 65.625 22.544 65.625 25.0358V25.0358ZM57.0508 24.9811C57.0508 26.9195 58.4216 28.9144 60.5966 28.9144C62.7027 28.9144 64.0455 27.3773 64.0455 25.3134C64.0455 23.2912 62.7586 21.3385 60.5687 21.3385C58.4216 21.3385 57.0508 22.8893 57.0508 24.9811V24.9811ZM68.9633 20.5764C70.8191 20.5764 71.8296 21.5465 71.8296 22.8061C71.8296 24.0253 70.7632 24.9811 69.6279 25.2438L71.6222 27.7512C72.2048 28.4716 73.0768 29.1908 73.8649 29.6902H72.5911C71.8569 29.6902 71.3998 29.5094 70.9837 28.9977L69.295 26.9065L68.0199 24.9526C69.1273 24.7867 70.4166 24.2743 70.4166 22.9726C70.4166 21.9751 69.5577 21.3931 68.6298 21.4347C68.3134 21.4506 67.9984 21.4877 67.687 21.5459V27.7505C67.687 28.3878 67.6044 29.3976 68.3105 29.6473V29.6896H65.6647V29.6473C66.3709 29.3976 66.2734 28.3735 66.2734 27.7505V22.5297C66.2734 21.8925 66.3703 20.8814 65.6647 20.618V20.5764H68.9633Z" fill="#125FB7"/>
<path fill-rule="evenodd" clip-rule="evenodd" d="M73.7278 22.5296C73.7278 21.8924 73.8247 20.8813 73.1191 20.6179V20.5763H75.7513V20.6179C75.0588 20.8813 75.1414 21.906 75.1414 22.5296V27.7511C75.1414 28.3741 75.0588 29.3852 75.7513 29.6479V29.6902H73.1191V29.6479C73.8104 29.3983 73.7278 28.3741 73.7278 27.7511V22.5296ZM76.6221 22.4731C76.6221 21.8371 76.719 20.826 76.0134 20.6179V20.5763H79.4076C82.5653 20.5763 84.5316 22.2942 84.5316 25.05C84.5316 27.7785 82.4404 29.6902 79.3375 29.6902H76.0134V29.6479C76.7059 29.1778 76.6221 28.5126 76.6221 27.6952V22.4731V22.4731ZM78.035 28.5958C78.3676 28.6631 78.7063 28.6956 79.0456 28.6927C81.11 28.6927 82.9516 27.6114 82.9516 25.2158C82.9516 22.7923 81.5939 21.5731 79.2822 21.5731C78.8661 21.5731 78.4512 21.6278 78.035 21.7259V28.5958V28.5958Z" fill="#125FB7"/>
<path fill-rule="evenodd" clip-rule="evenodd" d="M86.261 26.2685L85.5418 28.2218C85.2505 28.9975 85.1536 29.3981 85.8182 29.6478V29.69H83.2692V29.6478C84.0723 29.2472 84.3077 28.4709 84.6133 27.6808L86.9256 21.9054C87.1193 21.406 87.3827 20.8253 86.7194 20.6172V20.5756H88.9062L91.7874 27.6808C92.1067 28.4709 92.3551 29.2466 93.1451 29.6478V29.69H90.3055V29.6478C90.9862 29.3435 90.8757 29.1907 90.4993 28.2218L89.7521 26.2685H86.261ZM87.9932 21.7532L86.6212 25.2437H89.3497L87.9932 21.7532ZM46.1841 38.2486V41.3826C46.1841 42.1621 46.0804 43.4266 46.9468 43.7545V43.8061H43.6562V43.7545C44.522 43.4266 44.4189 42.1621 44.4189 41.3826V34.8388C44.4189 34.0594 44.5394 32.7955 43.6562 32.4663V32.4148H46.9468V32.4663C46.0804 32.7955 46.1841 34.0594 46.1841 34.8562V37.0033H52.4341V34.8562C52.4341 34.06 52.5558 32.7961 51.6726 32.4663V32.4148H54.9799V32.4663C54.0967 32.7955 54.2011 34.0594 54.2011 34.8388V41.3826C54.2011 42.1621 54.0967 43.4266 54.9799 43.7545V43.8061H51.6726V43.7545C52.5558 43.4266 52.4341 42.1621 52.4341 41.3826V38.2486H46.1841ZM65.1564 39.1535C65.1564 41.9795 62.8162 44.0297 60.0604 44.0297C57.3165 44.0297 55.0041 42.0627 55.0041 39.2231C55.0041 36.5916 57.2897 34.3904 60.1971 34.4581C63.1075 34.4432 65.1564 36.6605 65.1564 39.1535ZM56.5836 39.0983C56.5836 41.0373 57.9543 43.0316 60.1281 43.0316C62.2342 43.0316 63.5783 41.4938 63.5783 39.4305C63.5783 37.4083 62.2901 35.4556 60.1002 35.4556C57.9543 35.455 56.5836 37.0058 56.5836 39.0983V39.0983ZM71.0021 36.3413C70.4611 35.7879 69.6022 35.468 68.8271 35.468C68.0377 35.468 67.0402 35.7736 67.0402 36.7301C67.0402 38.6262 71.8052 38.5995 71.8052 41.1615C71.8052 42.6434 70.2537 44.0291 68.0929 44.0291C67.2476 44.0291 66.403 43.9048 65.6136 43.6129L65.2123 41.882C66.0297 42.5888 67.1657 43.0316 68.2464 43.0316C69.0351 43.0316 70.2264 42.5608 70.2264 41.5913C70.2264 39.4305 65.4614 39.8187 65.4614 36.8816C65.4614 35.137 67.2483 34.4724 68.9382 34.4724C69.6308 34.4724 70.3369 34.5693 71.0027 34.7767V36.3413H71.0021V36.3413ZM75.2261 34.6935C77.026 34.6935 78.398 35.5655 78.398 37.117C78.398 38.7095 76.9155 39.7206 75.3522 39.7206C75.005 39.7206 74.6585 39.6796 74.3405 39.5268C75.5305 39.4572 76.8186 38.7231 76.8186 37.3934C76.8186 36.1742 75.9596 35.6897 74.8522 35.6897C74.52 35.6897 74.1995 35.7171 73.8827 35.773V42.0198C73.8827 42.795 73.8672 43.3502 74.6019 43.7651V43.8061H71.8456V43.7651C72.553 43.516 72.4691 42.4912 72.4691 41.8677V36.6462C72.4691 36.0226 72.553 35.0115 71.8605 34.7345V34.6935H75.2261V34.6935ZM79.0763 36.6462C79.0763 36.0096 79.1731 34.9978 78.4676 34.7345V34.6935H81.0985V34.7345C80.4072 34.9978 80.4898 36.0226 80.4898 36.6462V41.8677C80.4898 42.4912 80.4072 43.5017 81.0985 43.7651V43.8061H78.4676V43.7651C79.1601 43.516 79.0763 42.4912 79.0763 41.8677V36.6462ZM85.6412 42.0068C85.6412 42.7956 85.6269 43.3359 86.3616 43.7651V43.8061H83.6201V43.7651C84.3126 43.5017 84.2288 42.4912 84.2288 41.8677V35.6904H83.0096C82.414 35.6904 81.7904 35.8425 81.3625 36.245H81.3202L81.8053 34.5972H81.8463C82.0128 34.6656 82.1922 34.6656 82.373 34.6935H87.8851C88.1205 34.6935 88.3423 34.6798 88.5218 34.5972H88.5627L88.1199 36.245H88.0789C87.8994 35.7605 87.3448 35.6904 86.8889 35.6904H85.6405V42.0068H85.6412V42.0068Z" fill="#125FB7"/>
<path fill-rule="evenodd" clip-rule="evenodd" d="M89.256 40.3866L88.5355 42.3394C88.243 43.1157 88.1461 43.517 88.8107 43.766V43.807H86.2617V43.766C87.066 43.3648 87.3027 42.589 87.6058 41.799L89.9193 36.0234C90.1131 35.5247 90.3764 34.944 89.7119 34.7353V34.6943H91.8999L94.7824 41.799C95.1004 42.589 95.3501 43.3648 96.1389 43.766V43.807H93.2993V43.766C93.9787 43.4617 93.8682 43.3101 93.493 42.3394L92.7459 40.3866H89.256V40.3866ZM90.9876 35.8706L89.6168 39.3606H92.3453L90.9876 35.8706Z" fill="#125FB7"/>
<path fill-rule="evenodd" clip-rule="evenodd" d="M99.5069 42.8101C100.447 42.866 101.266 42.5468 101.958 41.9655H101.999L101.279 43.807H95.5859V43.766C96.2934 43.517 96.2095 42.4921 96.2095 41.8686V36.647C96.2095 36.0104 96.2934 34.9986 95.5859 34.7353V34.6943H98.2318V34.7353C97.5256 34.9986 97.6219 36.0234 97.6219 36.647V42.6866L99.5069 42.8101Z" fill="#125FB7"/>
</svg>
